<?xml version="1.0" encoding="utf-8"?>
<!-- Generator: Adobe Illustrator 17.0.0, SVG Export Plug-In . SVG Version: 6.00 Build 0)  -->
<!DOCTYPE svg PUBLIC "-//W3C//DTD SVG 1.1//EN" "http://www.w3.org/Graphics/SVG/1.1/DTD/svg11.dtd">
<svg version="1.1" id="图层_1" xmlns="http://www.w3.org/2000/svg" xmlns:xlink="http://www.w3.org/1999/xlink" x="0px" y="0px"
	 width="1000px" height="1000px" viewBox="0 0 1000 1000" enable-background="new 0 0 1000 1000" xml:space="preserve">
<path fill="#fff" d="M312.5,187.733C312.5,84.051,396.657,0,500,0c103.553,0,187.5,83.827,187.5,187.733v99.535
	c0,103.682-82.786,198.771-185.394,212.452L500,500l-2.106-0.281C395.504,486.067,312.5,391.173,312.5,287.268V187.733z
	 M3.052,812.5c27.636-140.623,239.584-250,496.948-250c257.364,0,469.312,109.377,496.948,250H1000v93.75
	c0,51.777-41.696,93.75-94.078,93.75H94.078C42.12,1000,0,958.388,0,906.25V812.5H3.052z"/>
</svg>
