<?xml version="1.0" encoding="utf-8"?>
<!-- Generator: Adobe Illustrator 17.0.0, SVG Export Plug-In . SVG Version: 6.00 Build 0)  -->
<!DOCTYPE svg PUBLIC "-//W3C//DTD SVG 1.1//EN" "http://www.w3.org/Graphics/SVG/1.1/DTD/svg11.dtd">
<svg version="1.1" id="图层_1" xmlns="http://www.w3.org/2000/svg" xmlns:xlink="http://www.w3.org/1999/xlink" x="0px" y="0px"
	 width="1000px" height="1000px" viewBox="0 0 1000 1000" enable-background="new 0 0 1000 1000" xml:space="preserve">
<path fill="#fff" d="M500,937.5c34.518,0,62.5-27.982,62.5-62.5s-27.982-62.5-62.5-62.5s-62.5,27.982-62.5,62.5
	S465.482,937.5,500,937.5z M250,125v625h500V125H250z M125,124.629C125,55.798,181.372,0,250.533,0h498.934
	C818.797,0,875,55.907,875,124.629v750.743C875,944.202,818.628,1000,749.467,1000H250.533C181.203,1000,125,944.093,125,875.371
	V124.629z"/>
</svg>
