<?xml version="1.0" encoding="utf-8"?>
<!-- Generator: Adobe Illustrator 17.0.0, SVG Export Plug-In . SVG Version: 6.00 Build 0)  -->
<!DOCTYPE svg PUBLIC "-//W3C//DTD SVG 1.1//EN" "http://www.w3.org/Graphics/SVG/1.1/DTD/svg11.dtd">
<svg version="1.1" id="图层_1" xmlns="http://www.w3.org/2000/svg" xmlns:xlink="http://www.w3.org/1999/xlink" x="0px" y="0px"
	 width="1000px" height="1000px" viewBox="0 0 1000 1000" enable-background="new 0 0 1000 1000" xml:space="preserve">
<g>
	<defs>
		<path id="SVGID_1_" d="M792.744,886.796c-26.237-26.236-26.615-68.395-0.441-94.569c25.993-25.993,67.93-26.198,94.569,0.441
			l93.247,93.247c26.236,26.236,26.615,68.395,0.441,94.57c-25.993,25.993-67.93,26.198-94.57-0.441L792.744,886.796z
			 M658.471,658.454c122.036-122.035,122.036-319.894,0-441.929c-122.035-122.036-319.894-122.036-441.929,0
			s-122.035,319.894,0,441.929S536.435,780.49,658.471,658.454z M746.857,746.851c-170.853,170.853-447.859,170.853-618.712,0
			s-170.853-447.859,0-618.712s447.859-170.853,618.712,0S917.709,575.999,746.857,746.851z"/>
	</defs>
	<use xlink:href="#SVGID_1_"  overflow="visible" fill="#231815"/>
	<clipPath id="SVGID_2_">
		<use xlink:href="#SVGID_1_"  overflow="visible"/>
	</clipPath>
</g>
</svg>
