<?xml version="1.0" encoding="utf-8"?>
<!-- Generator: Adobe Illustrator 19.1.0, SVG Export Plug-In . SVG Version: 6.00 Build 0)  -->
<svg version="1.1" id="Layer_1" xmlns="http://www.w3.org/2000/svg" xmlns:xlink="http://www.w3.org/1999/xlink" x="0px" y="0px"
	 viewBox="0 0 841.9 279.8" style="enable-background:new 0 0 841.9 279.8;" xml:space="preserve">
<style type="text/css">
	.st0{fill:#39485A;}
	.st1{fill:#E11D48;}
	.st2{fill:#FFFFFF;}
	.st3{fill:#414099;}
	.st4{fill:#FFC20E;}
	.st5{fill:none;}
</style>
<g>
	<path class="st0" d="M758.1,59.8H447.5v159.6h22.3l12.1-11.6l11.6,11.6h235.9c23.8,0,51.8-18.5,56.1-43.3l16-72.9
		C801.4,79.3,781.9,59.8,758.1,59.8z"/>
	<path class="st1" d="M426.9,59.8l-10.2,13.6l-1.5-1.5L403,59.8H83.5c-23.8,0-43.3,19.5-43.3,43.3L53,176
		c2.6,23.6,32.3,43.3,56.1,43.3h363.8V59.8H426.9z"/>
	<g>
		<path class="st2" d="M572.1,110.6l29.9,45.3v-45.7c0-3,0.6-5.2,1.9-6.7c1.3-1.5,3-2.2,5.2-2.2c2.2,0,4,0.7,5.3,2.2
			c1.3,1.5,1.9,3.7,1.9,6.7v60.4c0,6.7-2.8,10.1-8.4,10.1c-1.4,0-2.7-0.2-3.8-0.6c-1.1-0.4-2.2-1-3.1-1.9c-1-0.9-1.9-1.9-2.7-3.1
			c-0.8-1.2-1.7-2.4-2.5-3.6l-29.2-44.7v45c0,2.9-0.7,5.2-2,6.7c-1.4,1.5-3.1,2.3-5.2,2.3c-2.2,0-4-0.8-5.3-2.3
			c-1.3-1.5-2-3.7-2-6.6v-59.3c0-2.5,0.3-4.5,0.8-5.9c0.7-1.6,1.8-2.9,3.3-3.8c1.5-1,3.2-1.5,5-1.5c1.4,0,2.6,0.2,3.6,0.7
			c1,0.5,1.9,1.1,2.6,1.8c0.8,0.8,1.5,1.8,2.3,3C570.4,108,571.2,109.2,572.1,110.6z"/>
		<path class="st2" d="M672.6,114.5h-35v18.9h32.3c2.4,0,4.1,0.5,5.3,1.6c1.2,1.1,1.8,2.5,1.8,4.2c0,1.7-0.6,3.2-1.7,4.3
			c-1.2,1.1-2.9,1.7-5.3,1.7h-32.3V167h36.3c2.4,0,4.3,0.6,5.5,1.7c1.2,1.1,1.9,2.6,1.9,4.5c0,1.8-0.6,3.3-1.9,4.4
			c-1.2,1.1-3.1,1.7-5.5,1.7h-42.3c-3.4,0-5.8-0.7-7.3-2.3c-1.5-1.5-2.2-3.9-2.2-7.3v-57.7c0-2.2,0.3-4.1,1-5.5
			c0.7-1.4,1.7-2.4,3.1-3.1c1.4-0.6,3.2-1,5.4-1h41.1c2.5,0,4.3,0.6,5.5,1.7c1.2,1.1,1.8,2.5,1.8,4.3c0,1.8-0.6,3.3-1.8,4.4
			C676.9,114,675.1,114.5,672.6,114.5z"/>
		<path class="st2" d="M744.4,167.2l-12.4-46l-12.6,46c-1,3.5-1.8,6-2.3,7.5c-0.6,1.5-1.6,2.9-3,4.1c-1.4,1.2-3.3,1.8-5.7,1.8
			c-1.9,0-3.5-0.4-4.7-1.1c-1.2-0.7-2.2-1.7-3-3c-0.8-1.3-1.4-2.9-1.9-4.7c-0.5-1.8-0.9-3.5-1.3-5l-12.8-51.7
			c-0.8-3-1.2-5.3-1.2-6.9c0-2,0.7-3.7,2.1-5c1.4-1.4,3.1-2,5.2-2c2.8,0,4.7,0.9,5.7,2.7c1,1.8,1.8,4.5,2.6,7.9l10.1,44.8l11.3-42
			c0.8-3.2,1.6-5.7,2.3-7.3c0.7-1.7,1.7-3.1,3.2-4.3c1.5-1.2,3.5-1.8,6.1-1.8c2.6,0,4.7,0.6,6.1,1.9c1.4,1.3,2.5,2.7,3,4.2
			c0.6,1.5,1.3,4,2.3,7.4l11.4,42l10.1-44.8c0.5-2.3,1-4.2,1.4-5.5c0.4-1.3,1.2-2.5,2.3-3.6c1.1-1,2.6-1.6,4.6-1.6
			c2,0,3.7,0.7,5.2,2c1.4,1.3,2.1,3,2.1,5.1c0,1.4-0.4,3.7-1.2,6.9l-12.8,51.7c-0.9,3.5-1.6,6.1-2.2,7.7c-0.6,1.6-1.6,3-2.9,4.3
			c-1.4,1.2-3.3,1.8-5.8,1.8c-2.4,0-4.3-0.6-5.7-1.8c-1.4-1.2-2.4-2.5-3-4C746.2,173.4,745.4,170.8,744.4,167.2z"/>
	</g>
	<path class="st3" d="M353,166.8c-0.1,0-0.1,0-0.2,0c0.1,0,0.2,0,0.3,0C353.1,166.8,353,166.8,353,166.8z"/>
	<path class="st2" d="M453.9,240.4c-1.2,0-2.3-0.4-3.2-1.2c-4.8-4.2-9.7-6.3-14.6-6.3c-0.6,0-1.2,0-1.8,0.1
		c-5.6,0.6-9.7,3.7-10.8,4.8c-0.5,0.7-1.2,1.3-2,1.7c-0.6,0.3-1.3,0.4-2,0.4c-1.3,0-2.5-0.5-3.4-1.4l-66.6-66.6
		c-1.4-1.4-1.8-3.6-1-5.4c0.3-0.7,0.8-1.3,1.4-1.8c1.1-1.3,5-7.6,6.1-13.6l0.3-2.8c0-0.2,0.3-4.5-5.6-10.4c-0.9-0.9-1.4-2.1-1.4-3.3
		s0.5-2.4,1.4-3.3l23.9-23.9l65.7-66c0.9-0.9,2.1-1.4,3.4-1.4c1,0,1.9,0.3,2.7,0.9c4.8,3.3,9.5,4.9,14.1,4.9c1.2,0,2.4-0.1,3.7-0.4
		c4.6-0.9,7.7-3.2,8.7-4.2c0.1-0.2,0.2-0.3,0.3-0.5c0.9-1.3,2.4-2,4-2c0.7,0,1.5,0.2,2.1,0.5c0.5,0.3,1,0.6,1.4,1.1l66.7,66.7
		c0.4,0.4,0.7,0.8,0.9,1.3c1,2.1,0.4,4.7-1.6,6.1c0,0,0,0-0.1,0c-1.1,1.3-4.8,6.8-5.1,13.3c-0.1,2,0.1,3.8,0.6,5.5
		c0.3,1.1,0.8,2.4,1.5,3.6c0.9,1.6,2.2,3.2,3.8,4.6c1,0.9,1.6,2.2,1.6,3.5c0,1.3-0.5,2.5-1.4,3.5L457.4,239
		C456.5,239.9,455.2,240.4,453.9,240.4z"/>
	<path class="st4" d="M545.6,143.9c-1.9-1.7-3.4-3.6-4.5-5.5c-0.7-1.4-1.3-2.8-1.7-4.2c-0.6-2.1-0.8-4.2-0.7-6.5
		c0.3-7.8,4.9-14.4,6.2-15.7c0.1,0,0.2-0.1,0.3-0.2c0.7-0.5,0.9-1.3,0.5-2.1c-0.1-0.2-0.2-0.3-0.3-0.5l0,0l-66.8-66.8
		c-0.1-0.2-0.3-0.3-0.5-0.4c-0.7-0.4-1.6-0.1-2.1,0.5c-0.1,0.1-0.2,0.3-0.2,0.4c-0.8,0.9-4.6,4.3-10.8,5.5
		c-6.6,1.3-13.4-0.4-20.2-5.1c-0.7-0.5-1.5-0.4-2.1,0.2l-65.7,66l-23.9,23.9c-0.3,0.3-0.4,0.6-0.4,1c0,0.4,0.2,0.8,0.4,1
		c6.8,6.8,6.5,12.3,6.5,12.9c0,0,0,0,0,0v0c-0.3,8.2-6.5,17.5-7.5,18.5c-0.3,0.2-0.5,0.4-0.7,0.7c-0.3,0.6-0.1,1.4,0.3,1.9
		l66.6,66.6c0.5,0.5,1.2,0.6,1.9,0.3c0.3-0.2,0.6-0.4,0.8-0.7c0.8-0.9,5.8-5.2,13-6c6.4-0.7,12.7,1.7,18.8,7
		c0.3,0.3,0.7,0.4,1.1,0.4c0.4,0,0.9-0.2,1.2-0.5l90.5-90.5c0.3-0.3,0.5-0.7,0.5-1.2C546.1,144.6,545.9,144.2,545.6,143.9z
		 M353,166.8c0,0,0.1,0,0.1,0c-0.1,0-0.2,0-0.3,0C352.9,166.8,352.9,166.8,353,166.8z"/>
	<path class="st2" d="M518.9,135.4c-0.2-3.9-2.1-7.7-5.7-11.4l-47.9-48.2c-3.5-3.5-7.1-5.4-11-5.7c-4.1-0.3-7.9,1.1-11.1,4.3
		c-3,3-4.5,6.7-4.3,10.7c0.2,3.9,2.1,7.6,5.7,11.3l12.4,12.5l-50.3,50c-4.1,4.1-6.3,8.4-6.5,12.9c-0.2,4.5,1.5,8.7,4.8,12.1
		c3.3,3.3,7.5,5,12,4.9c4.4-0.2,8.7-2.4,12.9-6.5l50.3-50l12.4,12.5c3.6,3.6,7.3,5.6,11.2,5.8c4.1,0.3,7.8-1.2,10.9-4.2
		C517.5,143.1,519,139.4,518.9,135.4z"/>
	<g>
		<path class="st0" d="M519.1,177.5l-15-14.7c-9.4-9.4-24.6-9.4-34,0c-9.4,9.4-9.4,24.6,0,34l20.5,20.5"/>
		<path class="st2" d="M490.7,197.7c-0.2,0-0.4,0-0.6,0c-6.8-0.3-11.7-6.1-11.9-6.4c-0.5-0.7-0.5-1.6,0.1-2.2l18.6-18.6
			c0.6-0.6,1.6-0.7,2.3-0.1c0.2,0.2,6,5.3,6.2,12.1c0.1,3.8-1.4,7.3-4.6,10.5C497.7,196.1,494.3,197.7,490.7,197.7z M481.8,190.3
			c1.6,1.5,4.7,3.9,8.4,4.1c2.8,0.1,5.6-1.1,8.2-3.7c2.5-2.5,3.7-5.2,3.6-8c-0.1-3.8-2.6-7-4-8.6L481.8,190.3z"/>
		<path class="st2" d="M486.7,153c6.9,0,13.3,2.7,18.2,7.5l14.2,14.3c0.6,0.6,0.6,1.7,0,2.3c-0.6,0.6-1.7,0.6-2.3,0l-14.2-14.3
			c-8.7-8.7-22.9-8.7-31.7,0c-8.7,8.7-8.7,22.9,0,31.7l24.8,24.8l-4.7,0l-22.4-22.4c-4.9-4.9-7.5-11.3-7.5-18.2s2.7-13.3,7.5-18.2
			C473.4,155.7,479.9,153,486.7,153z"/>
	</g>
	<g>
		<path class="st1" d="M404.7,61.4l21.9,21.9c9.4,9.4,9.4,24.6,0,34c-9.4,9.4-24.6,9.4-34,0l-13.9-14"/>
		<path class="st2" d="M409.6,126.1c-6.9,0-13.3-2.7-18.2-7.5l-12.7-12.8c-0.6-0.6-0.6-1.7,0-2.3c0.6-0.6,1.7-0.6,2.3,0l12.7,12.8
			c8.7,8.7,22.9,8.7,31.7,0c8.7-8.7,8.7-22.9,0-31.7l-24.9-24.8l4.8,0l22.4,22.4c4.9,4.9,7.5,11.3,7.5,18.2c0,6.9-2.7,13.3-7.5,18.2
			C422.9,123.4,416.5,126.1,409.6,126.1z"/>
		<path class="st2" d="M398.4,110.4c-0.4,0-0.8-0.1-1.1-0.4c-0.2-0.2-6-5.1-6.4-11.9c-0.2-3.8,1.4-7.4,4.7-10.7
			c3.2-3.2,6.7-4.7,10.5-4.7c6.9,0.1,12.1,5.7,12.3,5.9c0.4,0.4,0.5,1,0.4,1.5c-0.1,0.5-0.5,1-1,1.2c-8.9,3.6-15.1,9.8-18,17.9
			c-0.2,0.5-0.6,0.9-1.1,1C398.7,110.4,398.5,110.4,398.4,110.4z M405.9,86.1c-2.8,0-5.5,1.2-7.9,3.7c-2.6,2.6-3.8,5.4-3.7,8.2
			c0.2,3.3,2.1,6.1,3.5,7.8c3.2-7.1,8.8-12.7,16.5-16.4c-1.8-1.4-4.8-3.2-8.2-3.3C406,86.1,406,86.1,405.9,86.1z"/>
	</g>
	<path class="st2" d="M114.4,115.4h-17v55.8c0,3.2-0.7,5.6-2.1,7.2c-1.4,1.6-3.3,2.3-5.6,2.3c-2.3,0-4.2-0.8-5.6-2.4
		c-1.4-1.6-2.2-3.9-2.2-7.1v-55.8h-17c-2.7,0-4.6-0.6-5.9-1.8s-1.9-2.7-1.9-4.6c0-2,0.7-3.6,2-4.7s3.3-1.7,5.8-1.7h49.5
		c2.7,0,4.7,0.6,6,1.8c1.3,1.2,2,2.7,2,4.7s-0.7,3.5-2,4.6C119,114.8,117.1,115.4,114.4,115.4z"/>
	<path class="st2" d="M125.7,171.2v-60.5c0-3.1,0.7-5.5,2.1-7.1c1.4-1.6,3.3-2.4,5.6-2.4c2.3,0,4.2,0.8,5.7,2.3
		c1.4,1.6,2.2,3.9,2.2,7.1v60.5c0,3.2-0.7,5.6-2.2,7.1c-1.4,1.6-3.3,2.4-5.7,2.4c-2.2,0-4.1-0.8-5.5-2.4
		C126.4,176.7,125.7,174.3,125.7,171.2z"/>
	<path class="st5" d="M188.2,55.2V24.9c0-1.6,0.7-2.8,2.1-3.5c1.4-0.8,3.3-1.2,5.6-1.2c2.3,0,4.2,0.4,5.7,1.2c1.4,0.8,2.2,2,2.2,3.5
		v30.3c0,1.6-0.7,2.8-2.2,3.6c-1.4,0.8-3.3,1.2-5.7,1.2c-2.2,0-4.1-0.4-5.5-1.2C188.9,58,188.2,56.8,188.2,55.2z"/>
	<path class="st5" d="M188.2,254.3v-30.3c0-1.6,0.7-2.8,2.1-3.5c1.4-0.8,3.3-1.2,5.6-1.2c2.3,0,4.2,0.4,5.7,1.2
		c1.4,0.8,2.2,2,2.2,3.5v30.3c0,1.6-0.7,2.8-2.2,3.6c-1.4,0.8-3.3,1.2-5.7,1.2c-2.2,0-4.1-0.4-5.5-1.2
		C188.9,257.1,188.2,255.9,188.2,254.3z"/>
	<path class="st5" d="M5.2,93.4h30.3c1.6,0,2.8,0.7,3.5,2.1c0.8,1.4,1.2,3.3,1.2,5.6c0,2.3-0.4,4.2-1.2,5.7s-2,2.2-3.5,2.2H5.2
		c-1.6,0-2.8-0.7-3.6-2.2c-0.8-1.4-1.2-3.3-1.2-5.7c0-2.2,0.4-4.1,1.2-5.5S3.7,93.4,5.2,93.4z"/>
	<path class="st5" d="M806.1,93.4h30.3c1.6,0,2.8,0.7,3.5,2.1c0.8,1.4,1.2,3.3,1.2,5.6c0,2.3-0.4,4.2-1.2,5.7s-2,2.2-3.5,2.2h-30.3
		c-1.6,0-2.8-0.7-3.6-2.2c-0.8-1.4-1.2-3.3-1.2-5.7c0-2.2,0.4-4.1,1.2-5.5C803.4,94.2,804.5,93.4,806.1,93.4z"/>
	<path class="st2" d="M214.5,155.1c0,2.4-0.6,5.1-1.8,7.9c-1.2,2.8-3.1,5.6-5.7,8.4c-2.6,2.7-5.9,5-9.9,6.7c-4,1.7-8.7,2.6-14,2.6
		c-4.1,0-7.7-0.4-11.1-1.2c-3.3-0.8-6.3-2-9-3.6c-2.7-1.6-5.2-3.8-7.5-6.4c-2-2.4-3.8-5.1-5.2-8.1c-1.4-3-2.5-6.2-3.2-9.6
		c-0.7-3.4-1.1-7-1.1-10.8c0-6.2,0.9-11.7,2.7-16.6c1.8-4.9,4.4-9.1,7.7-12.5c3.4-3.5,7.3-6.1,11.8-7.9c4.5-1.8,9.3-2.7,14.4-2.7
		c6.2,0,11.8,1.2,16.6,3.7c4.9,2.5,8.6,5.5,11.2,9.2s3.9,7.1,3.9,10.3c0,1.8-0.6,3.4-1.9,4.7c-1.3,1.4-2.8,2-4.6,2
		c-2,0-3.5-0.5-4.5-1.4c-1-0.9-2.1-2.6-3.3-4.9c-2-3.8-4.4-6.7-7.2-8.5c-2.7-1.9-6.1-2.8-10.1-2.8c-6.4,0-11.5,2.4-15.3,7.3
		s-5.7,11.8-5.7,20.7c0,6,0.8,10.9,2.5,14.9s4,6.9,7.1,8.9c3.1,2,6.7,2.9,10.8,2.9c4.5,0,8.3-1.1,11.3-3.3c3.1-2.2,5.4-5.5,7-9.8
		c0.7-2,1.5-3.7,2.5-4.9c1-1.3,2.5-1.9,4.7-1.9c1.9,0,3.4,0.6,4.8,1.9C213.8,151.6,214.5,153.2,214.5,155.1z"/>
	<path class="st2" d="M235.3,110.7v26.9l30.5-31.9c1.5-1.5,2.7-2.7,3.7-3.4c1-0.7,2.4-1.1,4.1-1.1c2.2,0,4,0.7,5.4,2
		c1.4,1.3,2.1,2.9,2.1,4.8c0,2.3-1.2,4.5-3.5,6.8l-18.9,17.9l21.8,31.2c1.5,2.2,2.7,4.1,3.5,5.7c0.8,1.6,1.2,3.2,1.2,4.7
		c0,1.7-0.7,3.2-2,4.5c-1.3,1.3-3.2,1.9-5.5,1.9c-2.2,0-3.9-0.5-5.3-1.4c-1.4-0.9-2.5-2.2-3.5-3.7c-0.9-1.5-1.8-2.9-2.5-4.2
		L248,143.1l-12.7,12.2v15.9c0,3.2-0.7,5.6-2.2,7.2c-1.5,1.6-3.4,2.3-5.7,2.3c-1.3,0-2.6-0.4-3.8-1s-2.2-1.6-2.8-2.8
		c-0.5-1-0.8-2.1-0.9-3.4c-0.1-1.3-0.2-3.2-0.2-5.6v-57.1c0-3.1,0.7-5.5,2.1-7.1c1.4-1.6,3.3-2.4,5.6-2.4c2.3,0,4.2,0.8,5.7,2.3
		C234.5,105.1,235.3,107.5,235.3,110.7z"/>
	<path class="st2" d="M338.5,114.5h-35v18.9h32.3c2.4,0,4.1,0.5,5.3,1.6c1.2,1.1,1.8,2.5,1.8,4.2c0,1.7-0.6,3.2-1.7,4.3
		c-1.2,1.1-2.9,1.7-5.3,1.7h-32.3V167h36.3c2.4,0,4.3,0.6,5.5,1.7c1.2,1.1,1.9,2.6,1.9,4.5c0,1.8-0.6,3.3-1.9,4.4
		c-1.2,1.1-3.1,1.7-5.5,1.7h-42.3c-3.4,0-5.8-0.7-7.3-2.3c-1.5-1.5-2.2-3.9-2.2-7.3v-57.7c0-2.2,0.3-4.1,1-5.5
		c0.7-1.4,1.7-2.4,3.1-3.1c1.4-0.6,3.2-1,5.4-1h41.1c2.5,0,4.3,0.6,5.5,1.7c1.2,1.1,1.8,2.5,1.8,4.3c0,1.8-0.6,3.3-1.8,4.4
		C342.8,114,341,114.5,338.5,114.5z"/>
</g>
</svg>
